<svg width="17" height="16" viewBox="0 0 17 16" fill="none" xmlns="http://www.w3.org/2000/svg">
<path d="M13.1591 15.1874L13.1491 15.1973L13.1396 15.2078C13.0889 15.2641 13.0121 15.3239 12.8958 15.38L12.8956 15.3801C12.7795 15.4362 12.674 15.4693 12.5783 15.485C12.5456 15.4872 12.5104 15.4908 12.4835 15.4935L12.4787 15.4939C12.4786 15.494 12.4786 15.494 12.4785 15.494C12.445 15.4973 12.3898 15.5 12.308 15.5C12.1344 15.5 11.8195 15.4687 11.3411 15.3955C10.9162 15.3305 10.37 15.1656 9.69439 14.8855L9.69438 14.8855C9.03685 14.6129 8.27687 14.1977 7.41205 13.6323L7.41204 13.6323C6.56843 13.0808 5.6578 12.3149 4.68043 11.3264L4.68046 11.3264L4.67588 11.3218C3.89945 10.5565 3.26297 9.83111 2.76259 9.14582C2.25345 8.44849 1.84969 7.81155 1.54754 7.23423L1.54753 7.23422C1.2404 6.64743 1.01582 6.12622 0.868612 5.66884C0.715225 5.19224 0.615602 4.79477 0.564439 4.47245C0.509959 4.12923 0.493676 3.89041 0.502055 3.73959C0.510093 3.59491 0.516081 3.48312 0.518543 3.41939C0.534652 3.32498 0.567546 3.22122 0.622592 3.1072C0.678903 2.99055 0.738679 2.9138 0.794933 2.86317L0.804707 2.85437L0.814004 2.84507L3.06824 0.590841C3.14296 0.516121 3.20016 0.5 3.25706 0.5C3.3004 0.5 3.32408 0.510013 3.34689 0.527119C3.4054 0.571001 3.45755 0.625525 3.50338 0.694075L5.30626 4.11449L5.3061 4.11457L5.31279 4.12648C5.35139 4.19509 5.36583 4.26811 5.34405 4.37156C5.31766 4.49693 5.26601 4.58901 5.19164 4.66338L4.36113 5.49389C4.25843 5.59659 4.20798 5.71863 4.18102 5.7995C4.15575 5.8753 4.12994 5.9752 4.12994 6.08473V6.13192L4.13877 6.17829C4.19578 6.47757 4.31844 6.79485 4.48947 7.12521C4.64216 7.42989 4.86797 7.78397 5.15727 8.1832C5.46165 8.60325 5.88293 9.07301 6.41195 9.5908C6.93 10.1201 7.40216 10.5437 7.82699 10.8532L7.82706 10.8533C8.23205 11.1483 8.58667 11.3774 8.88562 11.53C9.15792 11.6691 9.41248 11.7782 9.62501 11.8207C9.62512 11.8207 9.62524 11.8207 9.62535 11.8207L9.83682 11.8631L9.88541 11.8728H9.93496C10.0468 11.8728 10.1523 11.8387 10.2032 11.8217L10.2035 11.8216C10.284 11.7948 10.4061 11.7444 10.5089 11.6416L10.512 11.6385L11.4646 10.6691C11.5738 10.576 11.69 10.5338 11.8333 10.5338C11.9738 10.5338 12.0261 10.5597 12.0336 10.5642L12.1524 10.6355H12.1712L15.3197 12.4953C15.4514 12.5778 15.4935 12.6509 15.509 12.71C15.5171 12.8001 15.4937 12.8695 15.4125 12.9509C15.4123 12.9511 15.4121 12.9513 15.4119 12.9515L13.1591 15.1874Z" stroke="white"/>
</svg>
